<?xml version="1.0" standalone="no"?>
<!DOCTYPE svg PUBLIC "-//W3C//DTD SVG 20010904//EN"
 "http://www.w3.org/TR/2001/REC-SVG-20010904/DTD/svg10.dtd">
<svg version="1.0" xmlns="http://www.w3.org/2000/svg"
 width="500.000000pt" height="272.000000pt" viewBox="0 0 500.000000 272.000000"
 preserveAspectRatio="xMidYMid meet">

<g transform="translate(0.000000,272.000000) scale(0.100000,-0.100000)"
fill="#000000" stroke="none">
<path d="M2887 2534 c-34 -103 -100 -239 -155 -321 -186 -272 -646 -595 -1182
-831 -117 -51 -436 -177 -495 -196 -19 -5 -23 2 -40 65 -29 105 -31 107 -95
80 -32 -14 -66 -21 -86 -19 -44 5 -44 -9 -4 -109 16 -41 30 -76 30 -78 0 -2
-13 -8 -30 -13 -26 -9 -29 -14 -21 -34 6 -15 15 -22 27 -19 11 2 25 4 33 5 9
1 34 -44 69 -122 30 -67 53 -124 51 -126 -2 -2 -58 -9 -124 -15 -378 -36 -651
-104 -788 -195 -58 -39 -79 -68 -29 -42 119 61 418 105 865 126 225 11 988 14
1252 5 931 -31 1744 -73 2529 -131 115 -8 211 -12 214 -9 3 3 -1 5 -9 5 -48 0
-919 117 -927 125 -1 1 11 31 28 66 16 35 30 69 30 76 0 23 20 24 51 3 29 -22
31 -22 44 -4 20 27 19 30 -20 54 -40 24 -40 28 -21 75 17 40 13 45 -30 45 -18
0 -45 5 -59 12 -22 10 -27 9 -39 -8 -13 -17 -19 -14 -111 55 -256 195 -485
435 -649 681 -47 69 -65 110 -101 225 -64 206 -83 271 -134 473 l-46 182 -28
-86z m-607 -857 c-266 -261 -575 -505 -966 -764 -119 -78 -147 -93 -181 -93
l-40 0 -17 108 c-9 59 -19 127 -22 152 l-6 46 133 48 c430 156 859 373 1134
574 61 44 112 80 115 81 3 0 -65 -68 -150 -152z m445 -113 c-3 -25 -8 -53 -11
-62 -9 -36 -54 -247 -94 -437 -40 -185 -52 -221 -72 -209 -4 3 -66 18 -138 33
-72 16 -134 32 -137 35 -7 7 -2 13 138 198 107 142 248 355 285 431 16 31 30
57 32 57 2 0 1 -21 -3 -46z m140 -119 c15 -115 138 -608 157 -632 14 -18 6
-17 -161 12 -151 27 -165 31 -156 46 3 5 22 100 40 211 75 437 87 504 92 518
4 8 10 -12 14 -45 4 -33 10 -82 14 -110z m425 75 c138 -173 357 -382 552 -527
49 -36 88 -66 88 -67 0 0 -9 -50 -19 -111 -11 -60 -17 -113 -15 -117 3 -4 -19
-8 -49 -8 -44 0 -61 5 -93 29 -121 88 -263 287 -383 535 -77 158 -157 354
-138 336 3 -3 28 -34 57 -70z"/>
<path d="M2756 518 c-3 -13 -8 -66 -11 -119 l-7 -97 -45 -6 c-98 -13 -92 -18
-86 84 4 64 3 90 -6 90 -7 0 -11 -29 -11 -90 l0 -90 -35 0 c-19 0 -35 -4 -35
-10 0 -5 16 -10 36 -10 l36 0 -7 -76 c-6 -56 -5 -75 4 -70 6 4 11 37 11 80 l0
73 68 6 c37 3 67 4 68 4 1 -1 -2 -29 -6 -62 -4 -33 -4 -64 1 -69 4 -5 11 23
14 62 6 60 11 71 29 77 21 7 21 8 -2 12 -19 4 -22 9 -18 36 16 104 17 250 2
175z"/>
<path d="M2335 363 c3 -71 9 -144 14 -163 l9 -35 1 38 c1 20 3 37 6 37 3 0 28
-11 55 -25 27 -14 60 -25 72 -25 13 1 -12 14 -54 31 -43 17 -78 36 -78 43 0
26 100 99 136 99 13 0 24 3 24 8 0 26 -53 4 -117 -47 -23 -19 -44 -34 -47 -34
-3 0 -6 45 -6 100 0 63 -4 100 -11 100 -7 0 -8 -41 -4 -127z"/>
<path d="M2225 470 c3 -5 8 -10 11 -10 2 0 4 5 4 10 0 6 -5 10 -11 10 -5 0 -7
-4 -4 -10z"/>
<path d="M1407 453 c-2 -4 -15 -42 -27 -85 -21 -73 -24 -77 -56 -83 -19 -3
-34 -10 -34 -15 0 -5 13 -5 30 0 17 5 30 7 30 6 0 -1 -11 -35 -24 -74 -14 -40
-21 -72 -16 -72 5 0 18 34 31 75 23 79 24 80 100 90 53 8 54 6 65 -75 4 -28
11 -53 17 -57 7 -4 8 6 3 28 -19 92 -19 119 -2 119 9 0 16 4 16 9 0 5 -9 7
-20 4 -12 -3 -22 0 -25 8 -32 92 -48 129 -57 129 -7 0 -7 -4 -1 -12 18 -22 53
-127 45 -132 -5 -3 -31 -8 -60 -12 l-51 -6 8 28 c5 16 16 51 25 79 14 44 16
69 3 48z"/>
<path d="M1662 403 c-2 -54 -1 -53 -66 -68 -15 -3 -26 -8 -23 -11 2 -3 23 -1
46 5 l41 9 0 -67 c0 -36 5 -73 10 -81 6 -10 7 13 3 66 l-6 81 39 7 c58 10 75
17 69 26 -3 4 -22 2 -42 -6 -59 -21 -62 -19 -66 39 l-3 52 -2 -52z"/>
<path d="M3335 385 l-30 -14 35 6 c40 7 45 9 33 16 -4 3 -21 -1 -38 -8z"/>
<path d="M3530 382 c-65 -33 -96 -153 -48 -186 32 -23 54 -20 86 12 15 15 18
19 7 10 -26 -22 -68 -23 -89 -2 -21 20 -21 73 0 81 11 4 12 8 4 13 -9 6 -8 14
5 34 19 28 55 42 81 32 15 -6 15 -9 -2 -29 l-19 -22 23 19 c27 23 28 32 4 45
-14 7 -28 5 -52 -7z"/>
<path d="M1930 360 c0 -17 -7 -45 -16 -62 -9 -16 -11 -27 -4 -23 8 5 9 -18 4
-83 -4 -54 -3 -92 3 -95 6 -4 10 28 11 81 1 48 6 113 11 145 4 32 4 60 -1 63
-4 3 -8 -9 -8 -26z"/>
<path d="M2010 380 c-25 -6 -25 -6 -2 -12 20 -6 22 -12 22 -71 0 -54 -3 -66
-17 -70 -16 -4 -16 -5 -1 -6 14 -1 18 -13 21 -63 l3 -63 2 62 c2 55 4 62 25
66 l22 4 -22 2 c-21 1 -23 6 -23 66 0 75 6 78 78 45 68 -31 69 -73 1 -97 -19
-7 -26 -12 -16 -12 27 -1 74 26 81 46 10 24 -40 68 -96 84 -24 7 -45 16 -48
19 -3 4 -16 4 -30 0z"/>
<path d="M2238 293 c2 -54 8 -102 14 -108 7 -7 9 -2 4 15 -3 14 -6 62 -6 108
0 45 -3 82 -7 82 -5 0 -6 -44 -5 -97z"/>
<path d="M3172 367 c-15 -34 -15 -40 -2 -32 6 4 10 -16 10 -52 0 -67 8 -103
22 -103 6 0 7 7 2 18 -4 9 -10 57 -14 107 -5 82 -7 87 -18 62z"/>
<path d="M2878 358 c-56 -88 -45 -178 21 -178 31 0 91 61 91 92 0 23 -54 87
-65 76 -3 -2 8 -17 25 -31 35 -32 38 -55 9 -91 -26 -33 -94 -38 -104 -6 -8 24
9 85 35 128 22 36 11 45 -12 10z"/>
<path d="M1805 327 c5 -54 29 -107 49 -107 7 0 21 10 32 21 19 22 19 22 -2 9
-34 -21 -51 -6 -68 62 -15 59 -16 60 -11 15z"/>
<path d="M3056 355 c-3 -9 -6 -22 -5 -28 0 -7 5 -1 10 12 5 13 8 26 5 28 -2 2
-6 -3 -10 -12z"/>
<path d="M3273 344 c-16 -25 -16 -27 2 -40 11 -8 37 -17 58 -21 48 -7 83 -34
74 -57 -9 -22 -73 -49 -98 -41 -11 4 -19 2 -19 -6 0 -19 79 -3 106 22 46 43
20 77 -69 93 -42 8 -56 29 -38 57 18 29 4 22 -16 -7z"/>
<path d="M3042 253 c-2 -66 10 -86 36 -60 14 15 13 15 -6 10 -19 -5 -21 0 -25
53 l-3 59 -2 -62z"/>
<path d="M3130 280 c-6 -11 -8 -20 -6 -20 3 0 10 9 16 20 6 11 8 20 6 20 -3 0
-10 -9 -16 -20z"/>
<path d="M3099 233 c-13 -16 -12 -17 4 -4 16 13 21 21 13 21 -2 0 -10 -8 -17
-17z"/>
</g>
</svg>
